# xmcd
#
# Track frame offsets:
#	150
#	22640
#	42751
#	65907
#	88565
#	118881
#	137375
#	165024
#	181070
#	200002
#	219470
#	252561
#
# Disc length: 3809 seconds
#
# Revision: 0
# Processed by: cddbd v1.5.2PL0 Copyright (c) Steve Scherf et al.
# Submitted via: EZCDAudioConverter 3.0.7.1
#
DISCID=9c0edf0c
DTITLE=Michael Katon - Live At Moulin Blues
DYEAR=2015
DGENRE=Boogie Blues Rock
TTITLE0=Guitar for My Friend
TTITLE1=Yeah...but We Can Boogie! - Come On Back to Hell
TTITLE2=Roadhouse 69
TTITLE3=Fried Jalapenos
TTITLE4=Red Moon Risin'
TTITLE5=No More Whiskey
TTITLE6=Barbeque On My Boogie
TTITLE7=Rip It Hard
TTITLE8=The Devil's Daughter
TTITLE9=American McMofo
TTITLE10=Love Hoo Doo
TTITLE11=Jump Back! (Your Baby Wanna Boogie)
EXTD=
EXTT0=
EXTT1=
EXTT2=
EXTT3=
EXTT4=
EXTT5=
EXTT6=
EXTT7=
EXTT8=
EXTT9=
EXTT10=
EXTT11=
PLAYORDER=
